<?xml version="1.0" encoding="utf-8"?>
<!-- Generator: Adobe Illustrator 17.0.0, SVG Export Plug-In . SVG Version: 6.00 Build 0)  -->
<!DOCTYPE svg PUBLIC "-//W3C//DTD SVG 1.1//EN" "http://www.w3.org/Graphics/SVG/1.1/DTD/svg11.dtd">
<svg version="1.1" id="Layer_1" xmlns="http://www.w3.org/2000/svg" xmlns:xlink="http://www.w3.org/1999/xlink" x="0px" y="0px"
	 width="186.5px" height="186.5px" viewBox="0 0 186.5 186.5" enable-background="new 0 0 186.5 186.5" xml:space="preserve">
<g>
	
		<linearGradient id="SVGID_1_" gradientUnits="userSpaceOnUse" x1="277.616" y1="-439.2435" x2="456.584" y2="-439.2435" gradientTransform="matrix(1 0 0 -1 -272.6 -344.9)">
		<stop  offset="0" style="stop-color:#666666"/>
		<stop  offset="1" style="stop-color:#000000"/>
	</linearGradient>
	<polygon fill="url(#SVGID_1_)" points="75.908,182.914 77.189,136.479 45.365,170.318 63.335,127.484 21.441,147.54 
		53.667,114.095 7.353,117.664 49.489,98.114 5.016,84.712 51.366,81.703 14.737,53.143 59.045,67.083 35.21,27.213 71.489,56.22 
		63.662,10.434 87.018,50.582 96.255,5.061 103.527,50.94 128.589,11.827 118.796,57.236 156.293,29.819 130.761,68.623 
		175.628,56.605 137.805,83.565 183.984,88.563 138.973,100.039 180.227,121.38 134.11,115.823 164.873,150.629 123.879,128.787 
		139.985,172.355 109.653,137.178 108.932,183.626 93.354,139.865 	"/>
	<path opacity="0.2" fill="#FFFFFF" enable-background="new    " d="M49.489,98.114l-42.136,19.55l20.925-1.612
		c25.886-14.418,59.698-23.168,96.734-23.168c11.262,0,22.214,0.837,32.755,2.36l26.217-6.681l-46.179-4.997L175.628,56.6
		l-44.867,12.023l25.532-38.804l-37.497,27.413l9.793-45.405L103.527,50.94L96.255,5.061l-9.238,45.521L63.662,10.43l7.827,45.785
		L35.21,27.208l23.84,39.866L14.742,53.134L51.37,81.694L5.016,84.712L49.489,98.114z"/>
</g>
</svg>
