<?xml version="1.0" encoding="utf-8"?>
<!-- Generator: Adobe Illustrator 17.0.0, SVG Export Plug-In . SVG Version: 6.00 Build 0)  -->
<!DOCTYPE svg PUBLIC "-//W3C//DTD SVG 1.1//EN" "http://www.w3.org/Graphics/SVG/1.1/DTD/svg11.dtd">
<svg version="1.1" id="Layer_1" xmlns="http://www.w3.org/2000/svg" xmlns:xlink="http://www.w3.org/1999/xlink" x="0px" y="0px"
	 width="186.5px" height="186.5px" viewBox="0 0 186.5 186.5" enable-background="new 0 0 186.5 186.5" xml:space="preserve">
<g>
	
		<linearGradient id="SVGID_1_" gradientUnits="userSpaceOnUse" x1="367.9056" y1="-529.5433" x2="367.9056" y2="-350.686" gradientTransform="matrix(1 0 0 -1 -272.6 -344.9)">
		<stop  offset="0" style="stop-color:#3F3F3F"/>
		<stop  offset="0.5" style="stop-color:#1F1F1F"/>
		<stop  offset="0.5" style="stop-color:#393939"/>
		<stop  offset="1" style="stop-color:#2D2D2D"/>
	</linearGradient>
	<path fill="url(#SVGID_1_)" d="M180.616,82.243h-7.545c-2.287,0-4.673-1.768-5.305-3.943l-10.268-23.969
		c-1.095-1.955-0.734-4.874,0.87-6.479l5.108-5.099c1.6-1.609,1.6-4.229,0-5.824l-12.284-12.288c-1.6-1.604-4.219-1.604-5.847,0
		l-5.524,5.557c-1.623,1.604-4.584,2.044-6.572,0.992l-20.853-8.326c-2.175-0.613-3.962-2.984-3.962-5.239V9.888
		c0-2.255-1.862-4.102-4.107-4.102H86.935c-2.259,0-4.121,1.848-4.121,4.102v7.732c0,2.255-1.782,4.645-3.929,5.314L54.701,33.286
		c-1.932,1.137-4.827,0.753-6.441-0.833l-5.421-5.426c-1.59-1.6-4.21-1.6-5.814,0L24.731,39.325c-1.618,1.609-1.618,4.229,0,5.824
		l5.899,5.927c1.628,1.604,2.068,4.528,1.02,6.549l-8.223,20.666c-0.603,2.194-2.961,3.962-5.239,3.962H9.972
		c-2.255,0-4.088,1.848-4.088,4.107v17.382c0,2.278,1.834,4.135,4.088,4.135h8.2c2.278,0,4.654,1.759,5.319,3.934l10.09,23.786
		c1.155,1.951,0.758,4.865-0.814,6.469l-5.66,5.627c-1.6,1.595-1.6,4.205,0,5.805l12.307,12.298c1.604,1.604,4.224,1.604,5.8,0
		l6.048-6.006c1.6-1.604,4.505-2.035,6.53-0.968l21.087,8.42c2.147,0.622,3.929,2.998,3.929,5.239v8.055
		c0,2.259,1.862,4.107,4.121,4.107h17.392c2.25,0,4.107-1.848,4.107-4.107v-8.064c0-2.241,1.764-4.622,3.962-5.276l23.58-10.01
		c1.965-1.109,4.846-0.716,6.469,0.861l5.319,5.356c1.6,1.586,4.219,1.586,5.824,0l12.302-12.316c1.604-1.595,1.604-4.215,0-5.81
		l-5.679-5.66c-1.576-1.604-2.021-4.533-0.95-6.535l8.542-21.27c0.603-2.189,2.989-3.943,5.276-3.971h7.545
		c2.245,0,4.107-1.843,4.107-4.107V86.355C184.723,84.091,182.856,82.243,180.616,82.243z M95.303,135.668
		c-22.345,0-40.458-18.112-40.458-40.458s18.112-40.458,40.458-40.458s40.458,18.112,40.458,40.458
		C135.761,117.555,117.649,135.668,95.303,135.668z"/>
	
		<linearGradient id="SVGID_2_" gradientUnits="userSpaceOnUse" x1="367.9033" y1="-458.7834" x2="367.9033" y2="-421.4365" gradientTransform="matrix(1 0 0 -1 -272.6 -344.9)">
		<stop  offset="0" style="stop-color:#3F3F3F"/>
		<stop  offset="0.5" style="stop-color:#1F1F1F"/>
		<stop  offset="0.5" style="stop-color:#393939"/>
		<stop  offset="1" style="stop-color:#2D2D2D"/>
	</linearGradient>
	<circle fill="url(#SVGID_2_)" cx="95.303" cy="95.21" r="18.673"/>
</g>
</svg>
