<?xml version="1.0" encoding="utf-8"?>
<!-- Generator: Adobe Illustrator 17.0.0, SVG Export Plug-In . SVG Version: 6.00 Build 0)  -->
<!DOCTYPE svg PUBLIC "-//W3C//DTD SVG 1.1//EN" "http://www.w3.org/Graphics/SVG/1.1/DTD/svg11.dtd">
<svg version="1.1" id="Layer_1" xmlns="http://www.w3.org/2000/svg" xmlns:xlink="http://www.w3.org/1999/xlink" x="0px" y="0px"
	 width="186.5px" height="186.5px" viewBox="0 0 186.5 186.5" enable-background="new 0 0 186.5 186.5" xml:space="preserve">
<g>
	<path fill="#3F3F3F" d="M95.308,174.354c-43.591,0-79.058-35.459-79.058-79.055s35.467-79.055,79.058-79.055
		c43.591,0,79.058,35.459,79.058,79.055S138.899,174.354,95.308,174.354z M181.894,95.299c0-47.741-38.842-86.583-86.586-86.583
		c-47.746,0-86.586,38.842-86.586,86.583s38.839,86.589,86.586,86.589C143.052,181.888,181.894,143.04,181.894,95.299z"/>
</g>
<g>
	<polygon fill="#3F3F3F" points="95.304,61.251 113.78,93.247 132.259,125.249 95.304,125.249 58.357,125.249 76.833,93.247 	"/>
</g>
</svg>
