<?xml version="1.0" encoding="utf-8"?>
<!-- Generator: Adobe Illustrator 17.0.0, SVG Export Plug-In . SVG Version: 6.00 Build 0)  -->
<!DOCTYPE svg PUBLIC "-//W3C//DTD SVG 1.1//EN" "http://www.w3.org/Graphics/SVG/1.1/DTD/svg11.dtd">
<svg version="1.1" id="Layer_1" xmlns="http://www.w3.org/2000/svg" xmlns:xlink="http://www.w3.org/1999/xlink" x="0px" y="0px"
	 width="186.5px" height="186.5px" viewBox="0 0 186.5 186.5" enable-background="new 0 0 186.5 186.5" xml:space="preserve">
<g>
	
		<linearGradient id="SVGID_1_" gradientUnits="userSpaceOnUse" x1="366.9441" y1="-526.8318" x2="366.9441" y2="-348.4901" gradientTransform="matrix(1 0 0 -1 -272.6 -344.9)">
		<stop  offset="0" style="stop-color:#3F3F3F"/>
		<stop  offset="0.5" style="stop-color:#1F1F1F"/>
		<stop  offset="0.5" style="stop-color:#393939"/>
		<stop  offset="1" style="stop-color:#2D2D2D"/>
	</linearGradient>
	<path fill="url(#SVGID_1_)" d="M94.342,53.017c-22.227,0-40.241,18.018-40.241,40.246c0,22.223,18.014,40.241,40.241,40.241
		s40.246-18.018,40.246-40.241C134.588,71.036,116.574,53.017,94.342,53.017z M94.346,116.285
		c-12.715,0-23.022-10.311-23.022-23.022c0-12.715,10.306-23.017,23.022-23.017c12.711,0,23.017,10.302,23.017,23.017
		C117.363,105.978,107.057,116.285,94.346,116.285z"/>
	
		<linearGradient id="SVGID_2_" gradientUnits="userSpaceOnUse" x1="366.9441" y1="-526.8353" x2="366.9441" y2="-348.4918" gradientTransform="matrix(1 0 0 -1 -272.6 -344.9)">
		<stop  offset="0" style="stop-color:#3F3F3F"/>
		<stop  offset="0.5" style="stop-color:#1F1F1F"/>
		<stop  offset="0.5" style="stop-color:#393939"/>
		<stop  offset="1" style="stop-color:#2D2D2D"/>
	</linearGradient>
	<rect x="87.636" y="6.07" fill="url(#SVGID_2_)" width="13.417" height="32.931"/>
	
		<linearGradient id="SVGID_3_" gradientUnits="userSpaceOnUse" x1="417.0902" y1="-526.8366" x2="417.0902" y2="-348.4865" gradientTransform="matrix(1 0 0 -1 -272.6 -344.9)">
		<stop  offset="0" style="stop-color:#3F3F3F"/>
		<stop  offset="0.5" style="stop-color:#1F1F1F"/>
		<stop  offset="0.5" style="stop-color:#393939"/>
		<stop  offset="1" style="stop-color:#2D2D2D"/>
	</linearGradient>
	<polygon fill="url(#SVGID_3_)" points="160.874,36.031 151.388,26.546 128.106,49.836 137.592,59.318 	"/>
	
		<linearGradient id="SVGID_4_" gradientUnits="userSpaceOnUse" x1="438.3734" y1="-526.8212" x2="438.3734" y2="-348.5024" gradientTransform="matrix(1 0 0 -1 -272.6 -344.9)">
		<stop  offset="0" style="stop-color:#3F3F3F"/>
		<stop  offset="0.5" style="stop-color:#1F1F1F"/>
		<stop  offset="0.5" style="stop-color:#393939"/>
		<stop  offset="1" style="stop-color:#2D2D2D"/>
	</linearGradient>
	<rect x="149.31" y="86.72" fill="url(#SVGID_4_)" width="32.926" height="13.412"/>
	
		<linearGradient id="SVGID_5_" gradientUnits="userSpaceOnUse" x1="417.7211" y1="-526.8295" x2="417.7211" y2="-348.4966" gradientTransform="matrix(1 0 0 -1 -272.6 -344.9)">
		<stop  offset="0" style="stop-color:#3F3F3F"/>
		<stop  offset="0.5" style="stop-color:#1F1F1F"/>
		<stop  offset="0.5" style="stop-color:#393939"/>
		<stop  offset="1" style="stop-color:#2D2D2D"/>
	</linearGradient>
	<polygon fill="url(#SVGID_5_)" points="152.015,160.567 161.505,151.082 138.219,127.8 128.737,137.286 	"/>
	
		<linearGradient id="SVGID_6_" gradientUnits="userSpaceOnUse" x1="367.222" y1="-526.83" x2="367.222" y2="-348.4896" gradientTransform="matrix(1 0 0 -1 -272.6 -344.9)">
		<stop  offset="0" style="stop-color:#3F3F3F"/>
		<stop  offset="0.5" style="stop-color:#1F1F1F"/>
		<stop  offset="0.5" style="stop-color:#393939"/>
		<stop  offset="1" style="stop-color:#2D2D2D"/>
	</linearGradient>
	<rect x="87.914" y="149.004" fill="url(#SVGID_6_)" width="13.417" height="32.926"/>
	
		<linearGradient id="SVGID_7_" gradientUnits="userSpaceOnUse" x1="315.8604" y1="-526.8304" x2="315.8604" y2="-348.4993" gradientTransform="matrix(1 0 0 -1 -272.6 -344.9)">
		<stop  offset="0" style="stop-color:#3F3F3F"/>
		<stop  offset="0.5" style="stop-color:#1F1F1F"/>
		<stop  offset="0.5" style="stop-color:#393939"/>
		<stop  offset="1" style="stop-color:#2D2D2D"/>
	</linearGradient>
	<polygon fill="url(#SVGID_7_)" points="26.874,151.964 36.36,161.45 59.646,138.168 50.156,128.682 	"/>
	
		<linearGradient id="SVGID_8_" gradientUnits="userSpaceOnUse" x1="293.9684" y1="-526.8467" x2="293.9684" y2="-348.4724" gradientTransform="matrix(1 0 0 -1 -272.6 -344.9)">
		<stop  offset="0" style="stop-color:#3F3F3F"/>
		<stop  offset="0.5" style="stop-color:#1F1F1F"/>
		<stop  offset="0.5" style="stop-color:#393939"/>
		<stop  offset="1" style="stop-color:#2D2D2D"/>
	</linearGradient>
	<rect x="4.903" y="87.607" fill="url(#SVGID_8_)" width="32.931" height="13.421"/>
	
		<linearGradient id="SVGID_9_" gradientUnits="userSpaceOnUse" x1="314.3714" y1="-526.8414" x2="314.3714" y2="-348.4905" gradientTransform="matrix(1 0 0 -1 -272.6 -344.9)">
		<stop  offset="0" style="stop-color:#3F3F3F"/>
		<stop  offset="0.5" style="stop-color:#1F1F1F"/>
		<stop  offset="0.5" style="stop-color:#393939"/>
		<stop  offset="1" style="stop-color:#2D2D2D"/>
	</linearGradient>
	<polygon fill="url(#SVGID_9_)" points="34.869,26.568 25.388,36.058 48.669,59.34 58.155,49.85 	"/>
</g>
</svg>
