<?xml version="1.0" encoding="utf-8"?>
<!-- Generator: Adobe Illustrator 17.0.0, SVG Export Plug-In . SVG Version: 6.00 Build 0)  -->
<!DOCTYPE svg PUBLIC "-//W3C//DTD SVG 1.1//EN" "http://www.w3.org/Graphics/SVG/1.1/DTD/svg11.dtd">
<svg version="1.1" id="Layer_1" xmlns="http://www.w3.org/2000/svg" xmlns:xlink="http://www.w3.org/1999/xlink" x="0px" y="0px"
	 width="186.5px" height="186.5px" viewBox="0 0 186.5 186.5" enable-background="new 0 0 186.5 186.5" xml:space="preserve">
<g>
	<path fill="#3F3F3F" d="M95.497,6.422c-48.641,0-88.075,39.429-88.075,88.08c0,48.647,39.434,88.075,88.075,88.075
		c48.652,0,88.075-39.429,88.075-88.075C183.573,45.851,144.149,6.422,95.497,6.422z M95.497,166.17
		c-38.942,0-70.629-31.693-70.629-70.64c0-35.716,26.235-65.445,61.352-70.003V11.879l3.488,2.001l36.422,21.025l3.472,2.012
		l-3.456,2.006L89.709,59.985l-3.488,2.001V49.885C64.752,54.213,48.868,73.376,48.868,95.53c0,25.712,20.918,46.624,46.629,46.624
		c25.712,0,46.63-20.913,46.63-46.624c0-7.645-1.916-15.247-5.548-21.983l-1.075-1.99l1.958-1.113l16.836-9.651l2.049-1.172
		l1.139,2.065c5.66,10.325,8.64,22.036,8.64,33.843C166.126,134.477,134.45,166.17,95.497,166.17z"/>
	<path opacity="0.25" fill="#FFFFFF" d="M20.353,140.442c7.758,9.624,160.277-70.934,156.955-79.066
		C164.136,29.143,132.454,6.422,95.466,6.422c-48.812,0-87.674,38.251-88.043,90.381C9.252,116.036,12.601,130.828,20.353,140.442z"
		/>
</g>
</svg>
