<?xml version="1.0" encoding="utf-8"?>
<!-- Generator: Adobe Illustrator 17.0.0, SVG Export Plug-In . SVG Version: 6.00 Build 0)  -->
<!DOCTYPE svg PUBLIC "-//W3C//DTD SVG 1.1//EN" "http://www.w3.org/Graphics/SVG/1.1/DTD/svg11.dtd">
<svg version="1.1" id="Layer_1" xmlns="http://www.w3.org/2000/svg" xmlns:xlink="http://www.w3.org/1999/xlink" x="0px" y="0px"
	 width="155.667px" height="155.667px" viewBox="0 0 155.667 155.667" enable-background="new 0 0 155.667 155.667"
	 xml:space="preserve">
<circle fill="#FFFFFF" cx="77.594" cy="77.761" r="74.594"/>
<g>
	<g>
		<path d="M89.954,23.076l-0.035,47.335v11.031v46.387H68.773V23.075L89.954,23.076z"/>
	</g>
	<g>
		<path fill="#FFFFFF" d="M81.647,116.785c2.188,1.254,2.803,7.61-2.402,7.621c-5.287,0.011-5.394-5.978-2.604-7.593l0.084-86.751
			c0.062-1.962,0.38-2.8,2.345-2.8c2.039,0,2.49,0.838,2.49,2.815L81.647,116.785z"/>
	</g>
	<g>
		<path fill="#FF0000" d="M81.647,116.456c2.468,1.36,2.752,7.9-2.329,7.9c-5.344,0-5.581-6.258-2.677-7.955l0.085-79.735h4.834
			L81.647,116.456z"/>
	</g>
	<g>
		<line fill="none" x1="79.218" y1="120.726" x2="79.232" y2="36.387"/>
		<g>
			<rect x="79.097" y="37.423" fill="#FEA621" width="0.257" height="82.264"/>
			<g>
				<circle fill="#FFFFFF" cx="79.218" cy="119.632" r="0.965"/>
				<path fill="#FEA621" d="M80.312,119.633c0-0.603-0.49-1.094-1.093-1.094c-0.603,0-1.094,0.49-1.094,1.093
					c0,0.603,0.49,1.094,1.093,1.094C79.821,120.726,80.312,120.236,80.312,119.633C80.312,119.03,80.312,120.236,80.312,119.633z
					 M78.382,119.632c0-0.461,0.375-0.837,0.837-0.837s0.837,0.375,0.837,0.837s-0.375,0.837-0.837,0.837
					S78.382,120.094,78.382,119.632C78.382,119.171,78.382,120.094,78.382,119.632z"/>
			</g>
			<g>
				<circle fill="#FEA621" cx="79.232" cy="37.478" r="1.091"/>
			</g>
		</g>
	</g>
	<g>
		<path fill="#FFFFFF" d="M74.179,33.009c0.685,0,1.369,0,2.054,0c0.397,0,0.397-0.616,0-0.616c-0.685,0-1.369,0-2.054,0
			C73.782,32.393,73.782,33.009,74.179,33.009L74.179,33.009z"/>
	</g>
	<g>
		<path fill="#FEA621" d="M71.098,34.542c1.711,0,3.423,0,5.134,0c0.248,0,0.248-0.385,0-0.385c-1.711,0-3.423,0-5.134,0
			C70.85,34.157,70.85,34.542,71.098,34.542L71.098,34.542z"/>
	</g>
	<g>
		<path fill="#FFFFFF" d="M74.179,36.288c0.685,0,1.369,0,2.054,0c0.397,0,0.397-0.616,0-0.616c-0.685,0-1.369,0-2.054,0
			C73.782,35.673,73.782,36.288,74.179,36.288L74.179,36.288z"/>
	</g>
	<g>
		<path fill="#FEA621" d="M71.098,31.254c1.711,0,3.423,0,5.134,0c0.248,0,0.248-0.385,0-0.385c-1.711,0-3.423,0-5.134,0
			C70.85,30.869,70.85,31.254,71.098,31.254L71.098,31.254z"/>
	</g>
	<g>
		<path fill="#FEA621" d="M71.098,37.831c1.711,0,3.423,0,5.134,0c0.248,0,0.248-0.385,0-0.385c-1.711,0-3.423,0-5.134,0
			C70.85,37.446,70.85,37.831,71.098,37.831L71.098,37.831z"/>
	</g>
	<g>
		<path fill="#FFFFFF" d="M74.179,39.568c0.685,0,1.369,0,2.054,0c0.397,0,0.397-0.616,0-0.616c-0.685,0-1.369,0-2.054,0
			C73.782,38.952,73.782,39.568,74.179,39.568L74.179,39.568z"/>
	</g>
	<g>
		<path fill="#FEA621" d="M71.098,41.119c1.711,0,3.423,0,5.134,0c0.248,0,0.248-0.385,0-0.385c-1.711,0-3.423,0-5.134,0
			C70.85,40.734,70.85,41.119,71.098,41.119L71.098,41.119z"/>
	</g>
	<g>
		<path fill="#FFFFFF" d="M74.179,42.847c0.685,0,1.369,0,2.054,0c0.397,0,0.397-0.616,0-0.616c-0.685,0-1.369,0-2.054,0
			C73.782,42.232,73.782,42.847,74.179,42.847L74.179,42.847z"/>
	</g>
	<g>
		<path fill="#FEA621" d="M71.098,44.408c1.711,0,3.423,0,5.134,0c0.248,0,0.248-0.385,0-0.385c-1.711,0-3.423,0-5.134,0
			C70.85,44.023,70.85,44.408,71.098,44.408L71.098,44.408z"/>
	</g>
	<g>
		<path fill="#FFFFFF" d="M74.179,46.127c0.685,0,1.369,0,2.054,0c0.397,0,0.397-0.616,0-0.616c-0.685,0-1.369,0-2.054,0
			C73.782,45.511,73.782,46.127,74.179,46.127L74.179,46.127z"/>
	</g>
	<g>
		<path fill="#FEA621" d="M71.098,47.697c1.711,0,3.423,0,5.134,0c0.248,0,0.248-0.385,0-0.385c-1.711,0-3.423,0-5.134,0
			C70.85,47.311,70.85,47.697,71.098,47.697L71.098,47.697z"/>
	</g>
	<g>
		<path fill="#FFFFFF" d="M74.179,49.406c0.685,0,1.369,0,2.054,0c0.397,0,0.397-0.616,0-0.616c-0.685,0-1.369,0-2.054,0
			C73.782,48.79,73.782,49.406,74.179,49.406L74.179,49.406z"/>
	</g>
	<g>
		<path fill="#FEA621" d="M71.098,50.985c1.711,0,3.423,0,5.134,0c0.248,0,0.248-0.385,0-0.385c-1.711,0-3.423,0-5.134,0
			C70.85,50.6,70.85,50.985,71.098,50.985L71.098,50.985z"/>
	</g>
	<g>
		<path fill="#FFFFFF" d="M74.179,52.685c0.685,0,1.369,0,2.054,0c0.397,0,0.397-0.616,0-0.616c-0.685,0-1.369,0-2.054,0
			C73.782,52.07,73.782,52.685,74.179,52.685L74.179,52.685z"/>
	</g>
	<g>
		<path fill="#FEA621" d="M71.098,54.274c1.711,0,3.423,0,5.134,0c0.248,0,0.248-0.385,0-0.385c-1.711,0-3.423,0-5.134,0
			C70.85,53.889,70.85,54.274,71.098,54.274L71.098,54.274z"/>
	</g>
	<g>
		<path fill="#FFFFFF" d="M74.179,55.965c0.685,0,1.369,0,2.054,0c0.397,0,0.397-0.616,0-0.616c-0.685,0-1.369,0-2.054,0
			C73.782,55.349,73.782,55.965,74.179,55.965L74.179,55.965z"/>
	</g>
	<g>
		<path fill="#FEA621" d="M71.098,57.562c1.711,0,3.423,0,5.134,0c0.248,0,0.248-0.385,0-0.385c-1.711,0-3.423,0-5.134,0
			C70.85,57.177,70.85,57.562,71.098,57.562L71.098,57.562z"/>
	</g>
	<g>
		<path fill="#FFFFFF" d="M74.179,59.244c0.685,0,1.369,0,2.054,0c0.397,0,0.397-0.616,0-0.616c-0.685,0-1.369,0-2.054,0
			C73.782,58.629,73.782,59.244,74.179,59.244L74.179,59.244z"/>
	</g>
	<g>
		<path fill="#FEA621" d="M71.098,60.851c1.711,0,3.423,0,5.134,0c0.248,0,0.248-0.385,0-0.385c-1.711,0-3.423,0-5.134,0
			C70.85,60.466,70.85,60.851,71.098,60.851L71.098,60.851z"/>
	</g>
	<g>
		<path fill="#FFFFFF" d="M74.179,62.524c0.685,0,1.369,0,2.054,0c0.397,0,0.397-0.616,0-0.616c-0.685,0-1.369,0-2.054,0
			C73.782,61.908,73.782,62.524,74.179,62.524L74.179,62.524z"/>
	</g>
	<g>
		<path fill="#FEA621" d="M71.098,64.139c1.711,0,3.423,0,5.134,0c0.248,0,0.248-0.385,0-0.385c-1.711,0-3.423,0-5.134,0
			C70.85,63.754,70.85,64.139,71.098,64.139L71.098,64.139z"/>
	</g>
	<g>
		<path fill="#FFFFFF" d="M73.922,65.921c0.685,0,1.369,0,2.054,0c0.397,0,0.397-0.616,0-0.616c-0.685,0-1.369,0-2.054,0
			C73.525,65.306,73.525,65.921,73.922,65.921L73.922,65.921z"/>
	</g>
	<g>
		<path fill="#FEA621" d="M71.098,67.428c1.711,0,3.423,0,5.134,0c0.248,0,0.248-0.385,0-0.385c-1.711,0-3.423,0-5.134,0
			C70.85,67.043,70.85,67.428,71.098,67.428L71.098,67.428z"/>
	</g>
	<g>
		<path fill="#FFFFFF" d="M73.922,69.201c0.685,0,1.369,0,2.054,0c0.397,0,0.397-0.616,0-0.616c-0.685,0-1.369,0-2.054,0
			C73.525,68.585,73.525,69.201,73.922,69.201L73.922,69.201z"/>
	</g>
	<g>
		<path fill="#FEA621" d="M71.098,70.716c1.711,0,3.423,0,5.134,0c0.248,0,0.248-0.385,0-0.385c-1.711,0-3.423,0-5.134,0
			C70.85,70.331,70.85,70.716,71.098,70.716L71.098,70.716z"/>
	</g>
	<g>
		<path fill="#FFFFFF" d="M73.922,72.48c0.685,0,1.369,0,2.054,0c0.397,0,0.397-0.616,0-0.616c-0.685,0-1.369,0-2.054,0
			C73.525,71.865,73.525,72.48,73.922,72.48L73.922,72.48z"/>
	</g>
	<g>
		<path fill="#FEA621" d="M71.098,74.005c1.711,0,3.423,0,5.134,0c0.248,0,0.248-0.385,0-0.385c-1.711,0-3.423,0-5.134,0
			C70.85,73.62,70.85,74.005,71.098,74.005L71.098,74.005z"/>
	</g>
	<g>
		<path fill="#FFFFFF" d="M73.922,75.76c0.685,0,1.369,0,2.054,0c0.397,0,0.397-0.616,0-0.616c-0.685,0-1.369,0-2.054,0
			C73.525,75.144,73.525,75.76,73.922,75.76L73.922,75.76z"/>
	</g>
	<g>
		<path fill="#FEA621" d="M71.098,77.293c1.711,0,3.423,0,5.134,0c0.248,0,0.248-0.385,0-0.385c-1.711,0-3.423,0-5.134,0
			C70.85,76.908,70.85,77.293,71.098,77.293L71.098,77.293z"/>
	</g>
	<g>
		<path fill="#FFFFFF" d="M73.922,79.039c0.685,0,1.369,0,2.054,0c0.397,0,0.397-0.616,0-0.616c-0.685,0-1.369,0-2.054,0
			C73.525,78.423,73.525,79.039,73.922,79.039L73.922,79.039z"/>
	</g>
	<g>
		<path fill="#FEA621" d="M71.098,80.582c1.711,0,3.423,0,5.134,0c0.248,0,0.248-0.385,0-0.385c-1.711,0-3.423,0-5.134,0
			C70.85,80.197,70.85,80.582,71.098,80.582L71.098,80.582z"/>
	</g>
	<g>
		<path fill="#FFFFFF" d="M73.922,82.318c0.685,0,1.369,0,2.054,0c0.397,0,0.397-0.616,0-0.616c-0.685,0-1.369,0-2.054,0
			C73.525,81.703,73.525,82.318,73.922,82.318L73.922,82.318z"/>
	</g>
	<g>
		<path fill="#FEA621" d="M71.098,83.87c1.711,0,3.423,0,5.134,0c0.248,0,0.248-0.385,0-0.385c-1.711,0-3.423,0-5.134,0
			C70.85,83.485,70.85,83.87,71.098,83.87L71.098,83.87z"/>
	</g>
	<g>
		<path fill="#FFFFFF" d="M73.922,85.598c0.685,0,1.369,0,2.054,0c0.397,0,0.397-0.616,0-0.616c-0.685,0-1.369,0-2.054,0
			C73.525,84.982,73.525,85.598,73.922,85.598L73.922,85.598z"/>
	</g>
	<g>
		<path fill="#FEA621" d="M71.098,87.159c1.711,0,3.423,0,5.134,0c0.248,0,0.248-0.385,0-0.385c-1.711,0-3.423,0-5.134,0
			C70.85,86.774,70.85,87.159,71.098,87.159L71.098,87.159z"/>
	</g>
	<g>
		<path fill="#FFFFFF" d="M73.922,88.877c0.685,0,1.369,0,2.054,0c0.397,0,0.397-0.616,0-0.616c-0.685,0-1.369,0-2.054,0
			C73.525,88.262,73.525,88.877,73.922,88.877L73.922,88.877z"/>
	</g>
	<g>
		<path fill="#FEA621" d="M71.098,90.447c1.711,0,3.423,0,5.134,0c0.248,0,0.248-0.385,0-0.385c-1.711,0-3.423,0-5.134,0
			C70.85,90.062,70.85,90.447,71.098,90.447L71.098,90.447z"/>
	</g>
	<g>
		<path fill="#FFFFFF" d="M73.922,92.157c0.685,0,1.369,0,2.054,0c0.397,0,0.397-0.616,0-0.616c-0.685,0-1.369,0-2.054,0
			C73.525,91.541,73.525,92.157,73.922,92.157L73.922,92.157z"/>
	</g>
	<g>
		<path fill="#FEA621" d="M71.098,93.736c1.711,0,3.423,0,5.134,0c0.248,0,0.248-0.385,0-0.385c-1.711,0-3.423,0-5.134,0
			C70.85,93.351,70.85,93.736,71.098,93.736L71.098,93.736z"/>
	</g>
	<g>
		<path fill="#FFFFFF" d="M73.922,95.436c0.685,0,1.369,0,2.054,0c0.397,0,0.397-0.616,0-0.616c-0.685,0-1.369,0-2.054,0
			C73.525,94.821,73.525,95.436,73.922,95.436L73.922,95.436z"/>
	</g>
	<g>
		<path fill="#FEA621" d="M71.098,97.024c1.711,0,3.423,0,5.134,0c0.248,0,0.248-0.385,0-0.385c-1.711,0-3.423,0-5.134,0
			C70.85,96.639,70.85,97.024,71.098,97.024L71.098,97.024z"/>
	</g>
	<g>
		<path fill="#FFFFFF" d="M73.922,98.834c0.685,0,1.369,0,2.054,0c0.397,0,0.397-0.616,0-0.616c-0.685,0-1.369,0-2.054,0
			C73.525,98.218,73.525,98.834,73.922,98.834L73.922,98.834z"/>
	</g>
	<g>
		<path fill="#FEA621" d="M71.098,100.313c1.711,0,3.423,0,5.134,0c0.248,0,0.248-0.385,0-0.385c-1.711,0-3.423,0-5.134,0
			C70.85,99.928,70.85,100.313,71.098,100.313L71.098,100.313z"/>
	</g>
	<g>
		<path fill="#FFFFFF" d="M73.922,102.113c0.685,0,1.369,0,2.054,0c0.397,0,0.397-0.616,0-0.616c-0.685,0-1.369,0-2.054,0
			C73.525,101.498,73.525,102.113,73.922,102.113L73.922,102.113z"/>
	</g>
	<g>
		<path fill="#FEA621" d="M71.098,103.601c1.711,0,3.423,0,5.134,0c0.248,0,0.248-0.385,0-0.385c-1.711,0-3.423,0-5.134,0
			C70.85,103.216,70.85,103.601,71.098,103.601L71.098,103.601z"/>
	</g>
	<g>
		<path fill="#FFFFFF" d="M73.922,105.393c0.685,0,1.369,0,2.054,0c0.397,0,0.397-0.616,0-0.616c-0.685,0-1.369,0-2.054,0
			C73.525,104.777,73.525,105.393,73.922,105.393L73.922,105.393z"/>
	</g>
	<g>
		<path fill="#FEA621" d="M71.098,106.89c1.711,0,3.423,0,5.134,0c0.248,0,0.248-0.385,0-0.385c-1.711,0-3.423,0-5.134,0
			C70.85,106.505,70.85,106.89,71.098,106.89L71.098,106.89z"/>
	</g>
	<g>
		<path fill="#FFFFFF" d="M73.922,108.672c0.685,0,1.369,0,2.054,0c0.397,0,0.397-0.616,0-0.616c-0.685,0-1.369,0-2.054,0
			C73.525,108.057,73.525,108.672,73.922,108.672L73.922,108.672z"/>
	</g>
	<g>
		<path fill="#FEA621" d="M71.098,110.178c1.711,0,3.423,0,5.134,0c0.248,0,0.248-0.385,0-0.385c-1.711,0-3.423,0-5.134,0
			C70.85,109.793,70.85,110.178,71.098,110.178L71.098,110.178z"/>
	</g>
	<g>
		<path fill="#FFFFFF" d="M73.922,111.952c0.685,0,1.369,0,2.054,0c0.397,0,0.397-0.616,0-0.616c-0.685,0-1.369,0-2.054,0
			C73.525,111.336,73.525,111.952,73.922,111.952L73.922,111.952z"/>
	</g>
	<g>
		<path fill="#FEA621" d="M71.098,113.467c1.711,0,3.423,0,5.134,0c0.248,0,0.248-0.385,0-0.385c-1.711,0-3.423,0-5.134,0
			C70.85,113.082,70.85,113.467,71.098,113.467L71.098,113.467z"/>
	</g>
	<g>
		<g>
			<polygon fill="#F87F26" points="58.894,69.27 55.164,70.361 53.948,74.052 51.758,70.842 47.872,70.826 50.248,67.751 
				49.062,64.05 52.721,65.36 55.874,63.088 55.759,66.973 			"/>
		</g>
		<g>
			<path d="M53.987,74.331l-2.296-3.365l-4.074-0.017l2.491-3.223l-1.243-3.879L52.7,65.22l3.305-2.381l-0.121,4.072l3.286,2.408
				l-3.91,1.144L53.987,74.331z M48.125,70.702l3.699,0.015l2.085,3.056l1.157-3.513l3.55-1.038l-2.984-2.186l0.11-3.697
				l-3.001,2.162l-3.482-1.247l1.129,3.522L48.125,70.702z"/>
		</g>
	</g>
	<rect x="68.773" y="127.829" width="21.143" height="8.328"/>
	<g>
		<g>
			<polygon fill="#F87F26" points="63.829,59.369 60.092,58.302 57.095,60.776 56.954,56.892 53.675,54.806 57.326,53.472 
				58.297,49.709 60.693,52.769 64.572,52.529 62.402,55.754 			"/>
		</g>
		<g>
			<path d="M56.979,61.033l-0.147-4.071l-3.437-2.187l3.826-1.398l1.018-3.945l2.512,3.207l4.066-0.251l-2.274,3.38l1.495,3.789
				l-3.917-1.118L56.979,61.033z M53.956,54.836l3.121,1.986l0.133,3.697l2.853-2.354l3.557,1.015l-1.358-3.441l2.065-3.069
				l-3.692,0.228l-2.281-2.912l-0.924,3.582L53.956,54.836z"/>
		</g>
	</g>
	<g>
		<g>
			<polygon fill="#F87F26" points="47.324,39.966 51.118,39.12 52.571,35.516 54.548,38.863 58.425,39.131 55.853,42.045 
				56.795,45.815 53.23,44.27 49.935,46.331 50.303,42.462 			"/>
		</g>
		<g>
			<path d="M52.55,35.235l2.072,3.508l4.064,0.282l-2.696,3.054l0.988,3.952l-3.738-1.62l-3.453,2.161l0.386-4.055L47.051,39.9
				l3.976-0.886L52.55,35.235z M58.164,39.239l-3.69-0.256l-1.881-3.185l-1.384,3.43l-3.61,0.805l2.835,2.376l-0.35,3.682
				l3.136-1.962l3.394,1.471l-0.897-3.588L58.164,39.239z"/>
		</g>
	</g>
	<g>
		<g>
			<polygon fill="#F87F26" points="58.577,29.552 54.704,29.222 52.238,32.225 51.355,28.441 47.736,27.023 51.063,25.013 
				51.293,21.134 54.232,23.676 57.993,22.697 56.483,26.278 			"/>
		</g>
		<g>
			<path d="M52.174,32.5l-0.926-3.967l-3.793-1.486l3.487-2.106l0.242-4.067l3.081,2.665l3.942-1.027l-1.583,3.754l2.195,3.432
				l-4.059-0.345L52.174,32.5z M48.017,26.999l3.444,1.35l0.841,3.602l2.348-2.858l3.686,0.314l-1.993-3.116l1.437-3.408
				l-3.58,0.931l-2.797-2.42l-0.219,3.692L48.017,26.999z"/>
		</g>
	</g>
	<g>
		<g>
			<polygon fill="#F87F26" points="66.805,21.526 63.358,19.733 59.926,21.556 60.566,17.723 57.772,15.022 61.616,14.447 
				63.321,10.954 65.055,14.432 68.904,14.974 66.132,17.699 			"/>
		</g>
		<g>
			<path d="M59.761,21.785l0.672-4.018l-2.929-2.831l4.029-0.603l1.787-3.661l1.818,3.645l4.034,0.569l-2.905,2.856l0.706,4.012
				l-3.614-1.88L59.761,21.785z M58.041,15.108l2.66,2.571l-0.61,3.648l3.267-1.735l3.281,1.707l-0.641-3.643l2.638-2.593
				l-3.663-0.516l-1.651-3.31l-1.623,3.324L58.041,15.108z"/>
		</g>
	</g>
	<path fill="#FF0000" d="M65.547,112.259c1.201-6.807,8.268-12.845,8.268-12.845s-2.613-1.137-3.977-0.88s5.511-8.598,1.388-14.879
		c-1.024-1.6,1.096,1.455-1.929,3.764s0.032-1.911-5.256-6.635c-7.588-6.781-4.897-10.453-4.897-10.453s-3.85,5.217-1.506,9.443
		c4.672,8.427,3.611,6.978,3.611,6.978s2.647,4.18,1.916,7.706s-3.571,4.494-5.701,4.076c-2.13-0.418-9.304-4.228-3.87-14.657
		c-3.56,0.924-8.201,10.343-6.346,17.042c3.766,13.598,20.733,27.587,20.733,27.587S63.971,121.196,65.547,112.259z"/>
	<path fill="#FE330A" d="M65.083,111.952c1.026-5.003,4.435-9.521,4.435-9.521s-1.907-0.893-2.92-0.731s4.247-6.238,1.33-10.962
		c-0.723-1.203,0.78,1.097-1.502,2.741s2.388-5.386-2.307-6.339c-7.587-1.541-7.176-8.1-7.176-8.1s-2.359,3.932,0.338,6.272
		c5.473,4.751-7.849,11.158-3.621,3.566c-15.869,13.236,14.706,40.098,14.706,40.098S63.735,118.521,65.083,111.952z"/>
	<path fill="#FF8000" d="M65.13,109.892c0.235-6.545,2.607-7.868,2.607-7.868s-3.213,1.013-3.933,1.12s2.979-4.353,0.868-7.695
		c-0.524-0.851,0.563,0.777-1.05,1.915c-1.613,1.139,1.357-2.894-1.688-4.472c-4.78-2.476-4.296-5.202-4.296-5.202
		s-1.464,3.396,0.262,5.227c3.653,3.877,2.516,4.201,1.494,3.942c-0.733-0.185-2.149-1.247-2.126-2.151s-0.757,2.053,0.447,3.206
		s-4.993,2.124-2.322-2.697c-2.235,2.526-3.577,4.369-3.068,10.176c0.847,9.655,16.04,23.583,16.04,23.583
		S64.786,119.459,65.13,109.892z"/>
	<path fill="#FEA621" d="M64.664,113.936c0.584-6.94-2.058-8.037-2.058-8.037s-1.835,2.56-2.282,1.449
		c-0.655-1.63,1.627-2.373,0.46-4.204c-0.29-0.466,0.311,0.426-0.572,1.045c-0.884,0.619,0.739-1.579-0.937-2.448
		c-2.632-1.364-1.27-2.848-1.27-2.848s-2.075,0.882-1.415,2.109c1.317,2.446,1.299,2.902,1.299,2.902s-1.184-0.686-1.173-1.18
		s-0.411,1.12,0.253,1.753s-2.894,1.414-1.282-1.479c-1.033,0.22-1.509,2.799-1.266,4.774c1.356,11.039,13.946,21.205,13.946,21.205
		S64.097,120.671,64.664,113.936z"/>
	<path fill="#FFBD16" d="M63.671,119.231c-0.161-2.244,0.451-2.971,0.451-2.971s-0.476-0.215-0.731-0.164
		c-0.255,0.051,0.794-3.007-0.497-8.609c-0.178-0.305-0.846,2.389-3.146,0.846c-0.607-0.407-1.915-3.556-1.915-3.556
		s0.207,2.185-0.068,2.641c-0.243,0.404-1.731,0.548-2.052-0.913c-0.216,0.6,0.374,5.447,1.505,8.027
		c2.391,5.454,10.344,13.202,10.344,13.202S64.018,124.074,63.671,119.231z"/>
	<g>
		<g>
			<path d="M55.565,135.056c-0.583-0.334-0.872-0.507-1.446-0.864c-0.253,0.405-0.379,0.608-0.632,1.013
				c0.54,0.337,0.813,0.501,1.361,0.819c-0.178,0.308-0.267,0.463-0.446,0.771c-0.558-0.324-0.836-0.491-1.386-0.835
				c-0.4,0.641-0.6,0.962-1,1.604c-0.397-0.249-0.594-0.376-0.986-0.635c1.067-1.625,1.601-2.437,2.668-4.062
				c0.912,0.595,1.375,0.878,2.312,1.415C55.832,134.59,55.743,134.745,55.565,135.056z"/>
			<path d="M59.607,141.485c-0.462-0.191-0.692-0.29-1.15-0.493c0.042-0.459,0.064-0.687,0.112-1.144
				c-0.648-0.292-0.97-0.445-1.61-0.761c-0.318,0.328-0.479,0.491-0.802,0.815c-0.447-0.226-0.67-0.342-1.113-0.579
				c1.576-1.371,2.336-2.083,3.795-3.551c0.445,0.215,0.669,0.32,1.118,0.522C59.749,138.35,59.679,139.389,59.607,141.485z
				 M58.683,138.968c0.079-0.688,0.122-1.031,0.215-1.714c0.018-0.127,0.056-0.272,0.114-0.433
				c-0.009-0.004-0.014-0.007-0.024-0.011c-0.071,0.125-0.156,0.242-0.256,0.351c-0.47,0.512-0.707,0.766-1.189,1.269
				C57.997,138.652,58.225,138.76,58.683,138.968z"/>
			<path d="M66.004,143.651c-0.44-0.117-0.66-0.178-1.098-0.305c0.219-0.774,0.328-1.161,0.547-1.935
				c-0.772-0.222-1.156-0.342-1.92-0.596c-0.25,0.762-0.376,1.144-0.626,1.906c-0.432-0.145-0.648-0.22-1.078-0.375
				c0.656-1.856,0.984-2.784,1.641-4.639c0.389,0.138,0.583,0.205,0.974,0.334c-0.245,0.747-0.368,1.12-0.613,1.867
				c0.749,0.249,1.126,0.366,1.883,0.583c0.215-0.758,0.322-1.137,0.536-1.895c0.396,0.113,0.594,0.167,0.992,0.271
				C66.747,140.78,66.499,141.737,66.004,143.651z"/>
			<path d="M72.964,144.993c-0.515-0.063-0.772-0.097-1.286-0.173c-0.238-0.552-0.353-0.829-0.575-1.383
				c-0.041-0.105-0.082-0.199-0.121-0.283s-0.081-0.157-0.124-0.219c-0.044-0.062-0.091-0.113-0.143-0.151
				c-0.052-0.038-0.111-0.063-0.177-0.075c-0.116-0.02-0.173-0.031-0.289-0.052c-0.132,0.749-0.197,1.123-0.329,1.872
				c-0.445-0.082-0.667-0.125-1.111-0.216c0.387-1.945,0.58-2.918,0.967-4.862c0.635,0.128,0.953,0.186,1.591,0.291
				c1.084,0.179,1.574,0.687,1.461,1.582c-0.022,0.172-0.066,0.328-0.135,0.467c-0.068,0.139-0.156,0.261-0.263,0.365
				s-0.232,0.19-0.375,0.256s-0.298,0.111-0.466,0.134c-0.001,0.005-0.001,0.008-0.002,0.014c0.067,0.034,0.13,0.081,0.189,0.143
				s0.115,0.131,0.167,0.209c0.053,0.078,0.102,0.16,0.148,0.247s0.088,0.172,0.125,0.254
				C72.506,144.046,72.655,144.363,72.964,144.993z M70.635,140.466c-0.096,0.544-0.143,0.816-0.239,1.36
				c0.183,0.033,0.274,0.049,0.457,0.08c0.226,0.039,0.419,0,0.577-0.116c0.16-0.117,0.255-0.279,0.286-0.485
				c0.064-0.43-0.142-0.679-0.618-0.759C70.913,140.516,70.82,140.5,70.635,140.466z"/>
			<path d="M78.145,145.357c-1.201-0.023-1.801-0.052-2.999-0.146c0.14-1.991,0.21-2.987,0.35-4.978
				c1.039,0.076,1.56,0.1,2.601,0.117c-0.005,0.367-0.008,0.551-0.012,0.918c-0.647-0.011-0.971-0.023-1.617-0.056
				c-0.021,0.444-0.032,0.666-0.053,1.11c0.616,0.033,0.924,0.044,1.541,0.057c-0.006,0.366-0.009,0.549-0.014,0.914
				c-0.628-0.014-0.942-0.026-1.57-0.06c-0.022,0.457-0.033,0.685-0.055,1.141c0.736,0.041,1.104,0.054,1.84,0.068
				C78.151,144.808,78.149,144.991,78.145,145.357z"/>
			<path d="M85.163,145.009c-0.453,0.054-0.679,0.078-1.133,0.122c-0.954-1.18-1.406-1.813-2.26-3.028
				c-0.125-0.178-0.211-0.436-0.26-0.436c-0.005,0-0.008,0-0.013,0c0.028,0,0.053,0.48,0.074,0.844
				c0.065,1.102,0.098,1.67,0.163,2.773c-0.426,0.022-0.638,0.039-1.064,0.052c-0.077-2.006-0.115-3.005-0.192-5.011
				c0.438-0.015,0.657-0.024,1.094-0.049c0.791,1.179,1.21,1.763,2.095,2.911c0.101,0.129,0.196,0.258,0.284,0.386
				c0.005-0.001,0.008-0.001,0.013-0.001c-0.03-0.115-0.063-0.343-0.1-0.685c-0.117-1.108-0.176-1.662-0.293-2.77
				c0.382-0.039,0.573-0.061,0.955-0.108C84.781,142.008,84.909,143.008,85.163,145.009z"/>
			<path d="M92.259,143.65c-0.441,0.117-0.662,0.173-1.104,0.281c-0.2-0.802-0.3-1.203-0.501-2.004
				c-0.778,0.19-1.169,0.277-1.953,0.435c0.167,0.808,0.251,1.211,0.418,2.019c-0.444,0.089-0.667,0.13-1.112,0.209
				c-0.366-1.989-0.551-2.984-0.917-4.973c0.401-0.073,0.602-0.112,1.002-0.193c0.164,0.791,0.246,1.186,0.41,1.977
				c0.768-0.155,1.151-0.241,1.914-0.428c-0.196-0.785-0.295-1.178-0.491-1.963c0.398-0.099,0.597-0.15,0.994-0.258
				C91.455,140.711,91.723,141.69,92.259,143.65z"/>
			<path d="M97.899,141.791c-1.136,0.449-1.709,0.656-2.863,1.035c-0.647-1.932-0.971-2.898-1.618-4.83
				c0.999-0.333,1.495-0.514,2.478-0.906c0.139,0.348,0.208,0.522,0.347,0.87c-0.611,0.243-0.919,0.359-1.536,0.58
				c0.154,0.427,0.23,0.64,0.384,1.067c0.589-0.21,0.882-0.319,1.465-0.549c0.138,0.347,0.206,0.521,0.344,0.868
				c-0.595,0.233-0.893,0.345-1.493,0.558c0.158,0.439,0.237,0.659,0.395,1.098c0.704-0.249,1.054-0.38,1.75-0.656
				C97.69,141.271,97.759,141.444,97.899,141.791z"/>
			<path d="M101.313,140.293c-0.416,0.201-0.625,0.299-1.045,0.49c-0.858-1.861-1.287-2.791-2.145-4.652
				c0.377-0.174,0.565-0.263,0.939-0.446C99.962,137.529,100.413,138.45,101.313,140.293z"/>
			<path d="M104.732,133.531c-0.457,0.301-0.687,0.448-1.151,0.735c0.883,1.433,1.326,2.149,2.209,3.582
				c-0.401,0.246-0.602,0.366-1.007,0.601c-0.85-1.451-1.275-2.176-2.125-3.627c-0.466,0.274-0.701,0.407-1.173,0.666
				c-0.181-0.331-0.272-0.496-0.453-0.826c1.295-0.713,1.933-1.098,3.181-1.922C104.42,133.056,104.524,133.215,104.732,133.531z"/>
		</g>
	</g>
	<g>
		<g>
			<path fill="#FF0000" d="M76.344,10.374v8.032H74.34V14.1c0-0.622-0.015-0.995-0.045-1.121s-0.112-0.221-0.246-0.285
				c-0.134-0.065-0.433-0.097-0.896-0.097h-0.198V11.66c0.969-0.209,1.705-0.637,2.208-1.286H76.344z"/>
			<path fill="#FF0000" d="M81.498,10.374v1.285h-2.486v1.364c0.311-0.367,0.711-0.551,1.201-0.551c0.552,0,0.97,0.155,1.253,0.464
				s0.424,0.904,0.424,1.784v1.146c0,0.569-0.027,0.987-0.082,1.253c-0.055,0.266-0.171,0.513-0.35,0.739
				c-0.179,0.227-0.428,0.4-0.747,0.521s-0.709,0.181-1.168,0.181c-0.516,0-0.971-0.09-1.364-0.27
				c-0.394-0.18-0.673-0.449-0.838-0.806s-0.248-0.91-0.248-1.657V15.39h2.004v0.501c0,0.519,0.018,0.888,0.055,1.106
				c0.036,0.218,0.162,0.327,0.377,0.327c0.099,0,0.179-0.031,0.241-0.094c0.061-0.063,0.094-0.131,0.099-0.203
				c0.005-0.073,0.011-0.389,0.017-0.948v-1.593c0-0.301-0.031-0.506-0.094-0.615s-0.167-0.164-0.313-0.164
				c-0.093,0-0.17,0.028-0.233,0.084s-0.103,0.117-0.122,0.181c-0.018,0.064-0.027,0.214-0.027,0.449h-1.984l0.084-4.048
				L81.498,10.374L81.498,10.374z"/>
			<path fill="#FF0000" d="M85.363,10.374v8.032h-2.004V14.1c0-0.622-0.015-0.995-0.045-1.121s-0.112-0.221-0.245-0.285
				c-0.134-0.065-0.433-0.097-0.896-0.097h-0.199V11.66c0.969-0.209,1.705-0.637,2.208-1.286H85.363z"/>
		</g>
	</g>
</g>
</svg>
